<svg xmlns="http://www.w3.org/2000/svg" xmlns:xlink="http://www.w3.org/1999/xlink" version="1.1" id="Layer_1" x="0px" y="0px" viewBox="0 0 132 132" style="enable-background:new 0 0 132 132;" xml:space="preserve" width="132" height="132">
<style type="text/css">
	.st0{fill:#000000;}
</style>
<g>
	<path class="st0" d="M107.8,36.3l0.5,0.5l-0.5,0.5V36.3L107.8,36.3z M102.2,50.8l14-14L102.5,23l-4,4l6.4,6.4h-2.8v5.6h3.8l-7.7,7.7    L102.2,50.8L102.2,50.8z M63.8,85.2h5.6v5.6h-5.6V85.2L63.8,85.2z M63.8,62.7h5.6v5.6h-5.6V62.7L63.8,62.7z M63.8,74h5.6v5.6h-5.6    V74L63.8,74z M79.6,33.5h5.6v5.6h-5.6V33.5L79.6,33.5z M60.3,92.9h5.6v5.6h-5.6V92.9L60.3,92.9z M68.4,33.5H74v5.6h-5.6V33.5    L68.4,33.5z M63.8,40.2h5.6v5.6h-5.6V40.2L63.8,40.2z M63.8,51.4h5.6v5.6h-5.6V51.4L63.8,51.4z M96.5,39.1h-5.6v-5.6h5.6V39.1    L96.5,39.1z M15.2,92.9h5.6v5.6h-5.6V92.9L15.2,92.9z M49,92.9h5.6v5.6H49V92.9L49,92.9z M37.7,92.9h5.6v5.6h-5.6V92.9L37.7,92.9z     M26.5,92.9h5.6v5.6h-5.6V92.9L26.5,92.9z M99,126.4V75.5h27.4v50.8H99L99,126.4z M5.6,98.5h4v-5.6h-4v-31h35.1V5.6h85.7v64.3h-33    v56.5H5.6V98.5L5.6,98.5z M35.1,5.6v50.6H5.6V5.6H35.1L35.1,5.6z M0,0v132h132V0H0L0,0z"/>
</g>
</svg>