<svg xmlns="http://www.w3.org/2000/svg" xmlns:xlink="http://www.w3.org/1999/xlink" version="1.1" id="Layer_1" x="0px" y="0px" viewBox="0 0 132 132" style="enable-background:new 0 0 132 132;" xml:space="preserve" width="132" height="132">
<style type="text/css">
	.st0{fill:#000000;}
</style>
<g>
	<path class="st0" d="M84,39.6l4.2,3.8l-25.6,28l-15-14.2l3.9-4.1l10.9,10.2L84,39.6L84,39.6z M26.9,75.5V24.9h76.7v50.6L66,98.5L26.9,75.5    L26.9,75.5z M109.2,78.7V19.3h-88v59.5L66,105L109.2,78.7L109.2,78.7z M126.4,87.5L66,125.4L5.6,87.5V5.6h120.7V87.5L126.4,87.5z     M0,0v90.6L66,132l66-41.4V0H0L0,0z"/>
	</g>
</svg>