<svg xmlns="http://www.w3.org/2000/svg" xmlns:xlink="http://www.w3.org/1999/xlink" version="1.1" id="Layer_1" x="0px" y="0px" viewBox="0 0 132 132" style="enable-background:new 0 0 132 132;" xml:space="preserve" width="132" height="132">
<style type="text/css">
	.st0{fill:#000000;}
</style>
<path class="st0" d="M0,0v132h132V0H0z M68.6,126.7c-0.5-1.4-2-2.2-3.5-1.8c-0.8,0.3-1.5,0.9-1.8,1.8h-58v-8.9l30.3-34.6l10.7,12.3l16.9-20.8  c0.1,1.5,1.4,2.7,2.9,2.6c1.5-0.1,2.7-1.4,2.6-2.9c-0.1-1.5-1.3-2.6-2.7-2.6c-0.1,0-0.3,0-0.4,0l1.9-2.3l6.5-1.1L73,62.8L65.6,64  l0,0c-0.7,0.1-1.2,0.5-1.7,1l0,0L46.2,86.8L35.6,74.7L5.4,109.4V5.3h58c-0.1,0.2-0.1,0.5-0.1,0.7c0,1.5,1.2,2.8,2.8,2.8  c1.5,0,2.8-1.2,2.8-2.8c0-0.2,0-0.5-0.1-0.7h58v32.9c-1.5,0-2.8,1.2-2.8,2.8c0,1.5,1.2,2.8,2.8,2.8v9.9l-6.4,1.1l0.9,5.4l5.5-0.9  v10.9c-1.5,0-2.8,1.2-2.8,2.8c0,0.2,0,0.4,0.1,0.5c0,0.2,0.1,0.3,0.2,0.5c0.1,0.2,0.2,0.3,0.2,0.5c0.1,0.1,0.2,0.3,0.3,0.4  c0.5,0.5,1.2,0.8,1.9,0.8v51.1L68.6,126.7z"/>
<circle class="st0" cx="66" cy="13.7" r="2.8"/>
<circle class="st0" cx="66" cy="104.7" r="2.8"/>
<circle class="st0" cx="66" cy="119.9" r="2.8"/>
<circle class="st0" cx="66" cy="112.3" r="2.8"/>
<circle class="st0" cx="66" cy="81.9" r="2.8"/>
<circle class="st0" cx="66" cy="89.5" r="2.8"/>
<circle class="st0" cx="66" cy="97.1" r="2.8"/>
<circle class="st0" cx="66" cy="28.8" r="2.8"/>
<circle class="st0" cx="66" cy="44" r="2.8"/>
<circle class="st0" cx="66" cy="51.6" r="2.8"/>
<circle class="st0" cx="66" cy="36.4" r="2.8"/>
<path class="st0" d="M66,56.4c-1.5,0-2.8,1.2-2.8,2.7c0,1.5,1.2,2.8,2.8,2.8c1.5,0,2.8-1.2,2.8-2.7C68.8,57.7,67.5,56.4,66,56.4  C66,56.4,66,56.4,66,56.4z"/>
<circle class="st0" cx="66" cy="21.2" r="2.8"/>
<path class="st0" d="M119.7,44.9c0.2,0,0.3,0,0.5,0c1.5-0.1,2.6-1.5,2.5-3c-0.1-1.5-1.5-2.6-3-2.5s-2.6,1.5-2.5,3  C117.3,43.7,118.4,44.8,119.7,44.9z"/>
<path class="st0" d="M112.7,46.1c0.2,0,0.3,0,0.5,0c1.5-0.1,2.6-1.5,2.5-3c-0.1-1.5-1.5-2.6-3-2.5c-1.5,0.1-2.6,1.5-2.5,3  C110.3,45,111.4,46,112.7,46.1z"/>
<path class="st0" d="M105.7,47.3c0.2,0,0.3,0,0.5,0c1.5-0.1,2.6-1.5,2.5-3c-0.1-1.5-1.5-2.6-3-2.5s-2.6,1.5-2.5,3  C103.3,46.2,104.4,47.2,105.7,47.3z"/>
<path class="st0" d="M91.7,49.7c1.5,0,2.7-1.3,2.7-2.8s-1.3-2.7-2.8-2.7c-1.5,0-2.7,1.3-2.7,2.8c0,0.1,0,0.3,0,0.4  C89.2,48.8,90.4,49.8,91.7,49.7z"/>
<path class="st0" d="M98.7,48.6c0.2,0,0.3,0,0.5,0c1.5-0.1,2.6-1.5,2.5-3c-0.1-1.5-1.5-2.6-3-2.5c-1.5,0.1-2.6,1.5-2.5,3  C96.3,47.4,97.4,48.5,98.7,48.6z"/>
<path class="st0" d="M84.7,50.9c0.2,0,0.3,0,0.5,0c1.5-0.1,2.6-1.5,2.5-3c-0.1-1.5-1.5-2.6-3-2.5s-2.6,1.5-2.5,3C82.3,49.8,83.4,50.8,84.7,50.9z  "/>
<path class="st0" d="M78.2,54.9c0.5,0.3,1,0.5,1.6,0.5c1.5,0,2.8-1.2,2.8-2.7c0-1.5-1.2-2.8-2.7-2.8c-1.5,0-2.8,1.2-2.8,2.7  C77,53.5,77.4,54.4,78.2,54.9z"/>
<path class="st0" d="M77.6,60.4c1.1-1.1,1.1-2.8,0-3.9c-1.1-1-2.8-1-3.9,0c-1.1,1-1.2,2.8-0.1,3.9c1,1.1,2.8,1.2,3.9,0.1  C77.5,60.5,77.5,60.4,77.6,60.4z"/>
<path class="st0" d="M84.2,73.5c-1.2-0.9-2.9-0.7-3.8,0.6c-0.9,1.2-0.7,2.9,0.5,3.8c1.2,0.9,2.9,0.7,3.9-0.6l0,0C85.7,76.2,85.4,74.5,84.2,73.5z  "/>
<path class="st0" d="M104.4,71.6c-1.5,0.1-2.7,1.3-2.7,2.8s1.3,2.7,2.8,2.7h0.2c1.5-0.1,2.7-1.4,2.6-2.9C107.2,72.7,105.9,71.5,104.4,71.6z"/>
<path class="st0" d="M97.1,72.1c-1.5,0.1-2.7,1.3-2.7,2.8c0.1,1.5,1.3,2.7,2.8,2.7l0,0h0.2c1.5-0.1,2.7-1.4,2.6-2.9C99.9,73.2,98.6,72,97.1,72.1  z"/>
<path class="st0" d="M111.8,71.1c-1.5,0.1-2.7,1.3-2.7,2.8c0.1,1.5,1.3,2.7,2.8,2.7h0.2c1.5-0.1,2.7-1.4,2.6-2.9S113.3,71,111.8,71.1z"/>
<path class="st0" d="M89.7,72.6C88.1,72.7,87,74,87,75.5s1.3,2.7,2.8,2.7H90c1.5-0.1,2.7-1.4,2.6-2.9C92.5,73.7,91.2,72.5,89.7,72.6z"/>
<path class="st0" d="M119.1,70.6c-1.5,0.1-2.7,1.3-2.7,2.8c0.1,1.5,1.3,2.7,2.8,2.7h0.2c1.5-0.1,2.7-1.4,2.6-2.9C122,71.6,120.7,70.5,119.1,70.6  z"/>
<path class="st0" d="M74.7,69.4c-0.1,0.1-0.2,0.3-0.3,0.4c-0.1,0.1-0.2,0.3-0.2,0.5c-0.1,0.2-0.1,0.3-0.2,0.5c-0.1,0.4-0.1,0.7,0,1.1  c0,0.2,0.1,0.3,0.2,0.5c0.1,0.2,0.1,0.3,0.2,0.5c0.1,0.2,0.2,0.3,0.3,0.4c1.1,1.1,2.8,1.1,3.9,0c1.1-1.1,1.1-2.8,0-3.9c0,0,0,0,0,0  C77.5,68.3,75.8,68.3,74.7,69.4z"/>
<rect class="st0" x="105.7" y="56.2" transform="matrix(0.9857 -0.1683 0.1683 0.9857 -8.3169 19.6965)" width="12.6" height="5.5"/>
<rect class="st0" x="91.3" y="58.8" transform="matrix(0.9856 -0.1692 0.1692 0.9856 -9.0059 17.4104)" width="12.7" height="5.5"/>
<rect class="st0" x="76.3" y="61.4" transform="matrix(0.9856 -0.1692 0.1692 0.9856 -9.6595 14.9121)" width="12.7" height="5.5"/>
</svg>